<?xml version="1.0" encoding="UTF-8" standalone="no"?>
<!-- Generator: Adobe Illustrator 18.1.1, SVG Export Plug-In . SVG Version: 6.00 Build 0)  -->

<svg
   viewBox="0 0 59.097567 61.412743"
   width="59.097569"
   height="61.412743"
   version="1.1"
   id="svg3"
   sodipodi:docname="candado-base-encriptador.svg"
   inkscape:version="1.3.2 (091e20e, 2023-11-25, custom)"
   xmlns:inkscape="http://www.inkscape.org/namespaces/inkscape"
   xmlns:sodipodi="http://sodipodi.sourceforge.net/DTD/sodipodi-0.dtd"
   xmlns="http://www.w3.org/2000/svg"
   xmlns:svg="http://www.w3.org/2000/svg">
  <defs
     id="defs3" />
  <sodipodi:namedview
     id="namedview3"
     pagecolor="#ffffff"
     bordercolor="#000000"
     borderopacity="0.25"
     inkscape:showpageshadow="2"
     inkscape:pageopacity="0.0"
     inkscape:pagecheckerboard="0"
     inkscape:deskcolor="#d1d1d1"
     inkscape:zoom="2.3193102"
     inkscape:cx="63.812075"
     inkscape:cy="26.732086"
     inkscape:window-width="1280"
     inkscape:window-height="658"
     inkscape:window-x="-6"
     inkscape:window-y="-6"
     inkscape:window-maximized="1"
     inkscape:current-layer="svg3" />
  <g
     id="g5"
     transform="translate(-80.000003)">
    <g
       id="g2"
       transform="translate(150.09756,-12.020182)">
      <ellipse
         style="fill:#000000;fill-opacity:1;stroke:#000000;stroke-width:2.62476;stroke-linecap:square;stroke-miterlimit:10"
         id="path4-8"
         cx="-40.548782"
         cy="66.216461"
         rx="28.236401"
         ry="5.9040823" />
      <path
         fill="none"
         stroke="#000000"
         stroke-width="2"
         stroke-linecap="round"
         stroke-miterlimit="10"
         d="m -56.54878,64.853659 c -1.1,0 -2,-0.9 -2,-2 v -24 c 0,-1.1 0.9,-2 2,-2 h 32 c 1.1,0 2,0.9 2,2 v 24 c 0,1.1 -0.9,2 -2,2 z"
         id="path1-9-0"
         style="fill:#000000;fill-opacity:1;stroke:#000000;stroke-width:6.5348;stroke-dasharray:none;stroke-opacity:1;paint-order:markers stroke fill" />
      <path
         fill="none"
         stroke="#000000"
         stroke-width="2.4065"
         stroke-linecap="round"
         stroke-miterlimit="10"
         d="m -27.313008,27.971545 c 0,-7.339838 -5.895935,-13.235773 -13.235772,-13.235773 -7.339837,0 -13.235772,5.895935 -13.235772,13.235773 v 7.219512"
         id="path2-2-2"
         style="fill:none;fill-opacity:1;stroke:#000000;stroke-width:5.43118;stroke-linecap:round;stroke-dasharray:none;stroke-opacity:1"
         sodipodi:nodetypes="cssc" />
      <path
         fill="none"
         stroke="#000000"
         stroke-width="2"
         stroke-linecap="round"
         stroke-miterlimit="10"
         d="m -56.54878,64.853659 c -1.1,0 -2,-0.9 -2,-2 v -24 c 0,-1.1 0.9,-2 2,-2 h 32 c 1.1,0 2,0.9 2,2 v 24 c 0,1.1 -0.9,2 -2,2 z"
         id="path1-1"
         style="fill:#000000;fill-opacity:1;stroke:#ffffff;stroke-width:3.51118;stroke-dasharray:none;stroke-opacity:1;paint-order:markers stroke fill" />
      <path
         fill="none"
         stroke="#000000"
         stroke-width="2.4065"
         stroke-linecap="round"
         stroke-miterlimit="10"
         d="m -27.313008,27.971545 c 0,-7.339838 -5.895935,-13.235773 -13.235772,-13.235773 -7.339837,0 -13.235772,5.895935 -13.235772,13.235773 v 7.219512"
         id="path2-25"
         style="fill:none;fill-opacity:1;stroke:#ffffff;stroke-width:2.407;stroke-linecap:round;stroke-dasharray:none;stroke-opacity:1"
         sodipodi:nodetypes="cssc" />
      <path
         d="m -37.54878,48.853659 c 0,-1.7 -1.3,-3 -3,-3 -1.7,0 -3,1.3 -3,3 0,0.9 0.4,1.7 1,2.2 v 2.8 c 0,1.1 0.9,2 2,2 1.1,0 2,-0.9 2,-2 v -2.8 c 0.6,-0.5 1,-1.3 1,-2.2 z"
         id="path3-4"
         style="fill:#ffffff;fill-opacity:1" />
    </g>
  </g>
</svg>
