<?xml version="1.0" encoding="UTF-8" standalone="no"?>
<svg
   width="102.52809"
   height="99.998741"
   viewBox="0 0 102.52809 99.998741"
   fill="none"
   version="1.1"
   id="svg1"
   sodipodi:docname="icono-git-hub.svg"
   xmlns:inkscape="http://www.inkscape.org/namespaces/inkscape"
   xmlns:sodipodi="http://sodipodi.sourceforge.net/DTD/sodipodi-0.dtd"
   xmlns="http://www.w3.org/2000/svg"
   xmlns:svg="http://www.w3.org/2000/svg">
  <defs
     id="defs1" />
  <sodipodi:namedview
     id="namedview1"
     pagecolor="#ffffff"
     bordercolor="#000000"
     borderopacity="0.25"
     inkscape:showpageshadow="2"
     inkscape:pageopacity="0.0"
     inkscape:pagecheckerboard="0"
     inkscape:deskcolor="#d1d1d1" />
  <path
     fill-rule="evenodd"
     clip-rule="evenodd"
     d="M 51.264046,0 C 22.940661,0 0,22.940661 0,51.264046 0,73.948387 14.674333,93.108324 35.051792,99.90081 c 2.563202,0.44856 3.524403,-1.089361 3.524403,-2.435042 0,-1.217521 -0.06408,-5.254565 -0.06408,-9.547929 -12.880092,2.370963 -16.212255,-3.139922 -17.237536,-6.023525 -0.57672,-1.473841 -3.075843,-6.023525 -5.254565,-7.241047 -1.794241,-0.9612 -4.357443,-3.332163 -0.06408,-3.396243 4.037044,-0.06408 6.920647,3.716644 7.881848,5.254565 4.613764,7.753687 11.98297,5.574965 14.930653,4.229284 0.44856,-3.332163 1.794242,-5.574965 3.268083,-6.856566 -11.40625,-1.281601 -23.325141,-5.703125 -23.325141,-25.311623 0,-5.574965 1.986482,-10.188729 5.254565,-13.777213 -0.512641,-1.281601 -2.306882,-6.536165 0.51264,-13.584972 0,0 4.293364,-1.345681 14.097613,5.254565 4.101124,-1.153441 8.458567,-1.730162 12.816011,-1.730162 4.357444,0 8.714888,0.576721 12.816012,1.730162 9.804249,-6.664326 14.097613,-5.254565 14.097613,-5.254565 2.819522,7.048807 1.025281,12.303371 0.51264,13.584972 3.268083,3.588484 5.254565,8.138168 5.254565,13.777213 0,19.672578 -11.982971,24.030022 -23.389221,25.311623 1.858321,1.602001 3.460323,4.677844 3.460323,9.483848 0,6.856566 -0.06408,12.367451 -0.06408,14.097613 0,1.345681 0.961201,2.947682 3.524403,2.435042 C 87.853759,93.108324 102.52809,73.884307 102.52809,51.264046 102.52809,22.940661 79.587432,0 51.264046,0 Z"
     fill="#1B1F23"
     id="path1"
     style="fill:#ffffff;fill-opacity:1;stroke:none;stroke-width:6.40801" />
</svg>
