<?xml version="1.0" encoding="UTF-8" standalone="no"?>
<!-- Generator: Adobe Illustrator 18.1.1, SVG Export Plug-In . SVG Version: 6.00 Build 0)  -->

<svg
   viewBox="0 0 96.230124 100"
   width="96.230125"
   height="100"
   version="1.1"
   id="svg3"
   sodipodi:docname="icono-candado-cerrado.svg"
   inkscape:version="1.3.2 (091e20e, 2023-11-25, custom)"
   xmlns:inkscape="http://www.inkscape.org/namespaces/inkscape"
   xmlns:sodipodi="http://sodipodi.sourceforge.net/DTD/sodipodi-0.dtd"
   xmlns="http://www.w3.org/2000/svg"
   xmlns:svg="http://www.w3.org/2000/svg">
  <defs
     id="defs3" />
  <sodipodi:namedview
     id="namedview3"
     pagecolor="#ffffff"
     bordercolor="#000000"
     borderopacity="0.25"
     inkscape:showpageshadow="2"
     inkscape:pageopacity="0.0"
     inkscape:pagecheckerboard="0"
     inkscape:deskcolor="#d1d1d1"
     inkscape:zoom="1.64"
     inkscape:cx="30.182927"
     inkscape:cy="4.2682928"
     inkscape:window-width="1280"
     inkscape:window-height="658"
     inkscape:window-x="-6"
     inkscape:window-y="-6"
     inkscape:window-maximized="1"
     inkscape:current-layer="svg3" />
  <g
     id="g8">
    <g
       id="g7">
      <g
         id="g6">
        <ellipse
           style="fill:#00b400;fill-opacity:1;stroke:#00b400;stroke-width:4.27396;stroke-linecap:square;stroke-miterlimit:10;stroke-opacity:1"
           id="path4"
           cx="48.115063"
           cy="88.249245"
           rx="45.978081"
           ry="9.6137733" />
        <path
           fill="none"
           stroke="#000000"
           stroke-width="2"
           stroke-linecap="round"
           stroke-miterlimit="10"
           d="m 22.061842,86.030154 c -1.791158,0 -3.256652,-1.465494 -3.256652,-3.256653 V 43.693664 c 0,-1.791158 1.465494,-3.256652 3.256652,-3.256652 h 52.10645 c 1.791158,0 3.256652,1.465494 3.256652,3.256652 v 39.079837 c 0,1.791159 -1.465494,3.256653 -3.256652,3.256653 z"
           id="path1-9"
           style="fill:#00b400;fill-opacity:1;stroke:#00b400;stroke-width:10.6408;stroke-dasharray:none;stroke-opacity:1;paint-order:markers stroke fill" />
        <path
           fill="none"
           stroke="#000000"
           stroke-width="2.4065"
           stroke-linecap="round"
           stroke-miterlimit="10"
           d="m 69.667226,37.729752 c 0,0 0,-9.600506 0,-11.755722 0,-11.951652 -9.600508,-21.5521596 -21.552159,-21.5521596 -11.951651,0 -21.552159,9.6005076 -21.552159,21.5521596 0,2.155216 0,11.755722 0,11.755722"
           id="path2-2"
           style="fill:none;fill-opacity:1;stroke:#00b400;stroke-width:8.84374;stroke-linecap:square;stroke-dasharray:none;stroke-opacity:1" />
        <path
           fill="none"
           stroke="#000000"
           stroke-width="2"
           stroke-linecap="round"
           stroke-miterlimit="10"
           d="m 22.061842,86.030154 c -1.791158,0 -3.256652,-1.465494 -3.256652,-3.256653 V 43.693664 c 0,-1.791158 1.465494,-3.256652 3.256652,-3.256652 h 52.10645 c 1.791158,0 3.256652,1.465494 3.256652,3.256652 v 39.079837 c 0,1.791159 -1.465494,3.256653 -3.256652,3.256653 z"
           id="path1"
           style="fill:#00b400;fill-opacity:1;stroke:#ffffff;stroke-width:5.71734;stroke-dasharray:none;stroke-opacity:1;paint-order:markers stroke fill" />
        <path
           fill="none"
           stroke="#000000"
           stroke-width="3.91857"
           stroke-linecap="round"
           stroke-miterlimit="10"
           d="m 69.667226,37.729752 c 0,0 0,-9.600506 0,-11.755722 0,-11.951652 -9.600508,-21.5521596 -21.552159,-21.5521596 -11.951651,0 -21.552159,9.6005076 -21.552159,21.5521596 0,2.155216 0,11.755722 0,11.755722"
           id="path2"
           style="fill:none;fill-opacity:1;stroke:#ffffff;stroke-linecap:square;stroke-opacity:1" />
        <path
           d="m 53.000047,59.976929 c 0,-2.768154 -2.116824,-4.884978 -4.88498,-4.884978 -2.768156,0 -4.88498,2.116824 -4.88498,4.884978 0,1.465495 0.651332,2.768156 1.628327,3.582319 v 4.559314 c 0,1.79116 1.465495,3.256654 3.256653,3.256654 1.791158,0 3.256653,-1.465494 3.256653,-3.256654 v -4.559314 c 0.976995,-0.814163 1.628327,-2.116824 1.628327,-3.582319 z"
           id="path3"
           style="fill:#ffffff;fill-opacity:1;stroke-width:1.62833" />
      </g>
    </g>
  </g>
</svg>
