<?xml version="1.0" encoding="UTF-8" standalone="no"?>
<!-- Created with Inkscape (http://www.inkscape.org/) -->

<svg
   width="24.005833mm"
   height="26.458334mm"
   viewBox="0 0 24.005832 26.458334"
   version="1.1"
   id="svg1"
   sodipodi:docname="icono-simbolo-pregunta.svg"
   inkscape:version="1.3.2 (091e20e, 2023-11-25, custom)"
   xmlns:inkscape="http://www.inkscape.org/namespaces/inkscape"
   xmlns:sodipodi="http://sodipodi.sourceforge.net/DTD/sodipodi-0.dtd"
   xmlns="http://www.w3.org/2000/svg"
   xmlns:svg="http://www.w3.org/2000/svg">
  <sodipodi:namedview
     id="namedview1"
     pagecolor="#ffffff"
     bordercolor="#000000"
     borderopacity="0.25"
     inkscape:showpageshadow="2"
     inkscape:pageopacity="0.0"
     inkscape:pagecheckerboard="0"
     inkscape:deskcolor="#d1d1d1"
     inkscape:document-units="mm"
     inkscape:zoom="1.1114533"
     inkscape:cx="22.043211"
     inkscape:cy="17.094735"
     inkscape:window-width="1280"
     inkscape:window-height="658"
     inkscape:window-x="-6"
     inkscape:window-y="-6"
     inkscape:window-maximized="1"
     inkscape:current-layer="layer1" />
  <defs
     id="defs1" />
  <g
     inkscape:label="Capa 1"
     inkscape:groupmode="layer"
     id="layer1"
     transform="translate(-57.857137,-191.22938)">
    <g
       id="g6">
      <g
         id="g5">
        <g
           id="g4">
          <g
             id="g3">
            <ellipse
               style="fill:#000000;fill-opacity:1;stroke:#000000;stroke-width:1.0662;stroke-linecap:square;stroke-miterlimit:10"
               id="path4-8"
               cx="69.860054"
               cy="214.75633"
               rx="11.469818"
               ry="2.3982782" />
            <path
               id="text1-8-6"
               style="font-size:80.3825px;font-family:'Cooper Black';-inkscape-font-specification:'Cooper Black, Normal';fill:#000000;fill-opacity:1;stroke:#000000;stroke-width:3.07054;stroke-linecap:round;stroke-miterlimit:10;stroke-dasharray:none;stroke-opacity:1"
               d="m 72.860234,193.13909 c -1.417409,-0.3798 -2.815696,-0.4713 -4.194781,-0.27415 -1.30255,0.18148 -2.469191,0.68889 -3.500206,1.52186 -1.016748,0.82475 -1.671352,1.78271 -1.963735,2.87391 -0.192909,0.71993 -0.09238,1.37988 0.301504,1.97974 0.341458,0.52555 0.872181,0.88472 1.592136,1.07764 1.034933,0.2773 1.954178,0.19817 2.758157,-0.23748 0.800961,-0.42439 1.411492,-1.19533 1.83144,-2.31262 0.230254,-0.58936 0.447103,-0.97123 0.650614,-1.14579 0.206518,-0.18578 0.484178,-0.23196 0.832905,-0.13848 0.337477,0.0904 0.571002,0.32166 0.70034,0.69391 0.143609,0.36401 0.150564,0.78795 0.02096,1.27168 -0.259222,0.96745 -0.902154,1.90437 -1.928747,2.81087 -1.103943,0.97016 -1.717818,1.52905 -1.841777,1.67669 -0.490613,0.61606 -0.818913,1.23358 -0.984699,1.85231 -0.183864,0.68619 -0.131742,1.27882 0.156491,1.77802 0.288227,0.49923 0.769964,0.83923 1.444923,1.02008 0.708703,0.1899 1.238009,0.21712 1.58774,0.0818 0.352764,-0.14662 0.83186,-0.5848 1.437386,-1.31476 0.282473,-0.33424 0.571954,-0.58235 0.868476,-0.74405 0.310783,-0.16992 0.746856,-0.3123 1.30814,-0.42717 1.55327,-0.30723 2.502175,-0.54125 2.846707,-0.70213 1.306805,-0.60233 2.1349,-1.55584 2.48455,-2.86076 0.301427,-1.12494 0.210482,-2.27059 -0.272748,-3.43696 -0.493666,-1.21741 -1.334437,-2.28685 -2.522387,-3.20801 -1.148982,-0.88662 -2.353458,-1.49854 -3.613379,-1.83613 z m -4.312825,16.41025 a 2.6301703,2.6301703 0 0 0 -3.221183,1.85975 2.6301703,2.6301703 0 0 0 1.85975,3.22118 2.6301703,2.6301703 0 0 0 3.221182,-1.85975 2.6301703,2.6301703 0 0 0 -1.859749,-3.22118 z" />
            <path
               id="text1-8"
               style="font-size:80.3825px;font-family:'Cooper Black';-inkscape-font-specification:'Cooper Black, Normal';fill:#ffffff;fill-opacity:1;stroke:#ffffff;stroke-width:1.3495;stroke-linecap:round;stroke-miterlimit:10;stroke-dasharray:none;stroke-opacity:1"
               d="m 72.860234,193.13909 c -1.417409,-0.3798 -2.815696,-0.4713 -4.194781,-0.27415 -1.30255,0.18148 -2.469191,0.68889 -3.500206,1.52186 -1.016748,0.82475 -1.671352,1.78271 -1.963735,2.87391 -0.192909,0.71993 -0.09238,1.37988 0.301504,1.97974 0.341458,0.52555 0.872181,0.88472 1.592136,1.07764 1.034933,0.2773 1.954178,0.19817 2.758157,-0.23748 0.800961,-0.42439 1.411492,-1.19533 1.83144,-2.31262 0.230254,-0.58936 0.447103,-0.97123 0.650614,-1.14579 0.206518,-0.18578 0.484178,-0.23196 0.832905,-0.13848 0.337477,0.0904 0.571002,0.32166 0.70034,0.69391 0.143609,0.36401 0.150564,0.78795 0.02096,1.27168 -0.259222,0.96745 -0.902154,1.90437 -1.928747,2.81087 -1.103943,0.97016 -1.717818,1.52905 -1.841777,1.67669 -0.490613,0.61606 -0.818913,1.23358 -0.984699,1.85231 -0.183864,0.68619 -0.131742,1.27882 0.156491,1.77802 0.288227,0.49923 0.769964,0.83923 1.444923,1.02008 0.708703,0.1899 1.238009,0.21712 1.58774,0.0818 0.352764,-0.14662 0.83186,-0.5848 1.437386,-1.31476 0.282473,-0.33424 0.571954,-0.58235 0.868476,-0.74405 0.310783,-0.16992 0.746856,-0.3123 1.30814,-0.42717 1.55327,-0.30723 2.502175,-0.54125 2.846707,-0.70213 1.306805,-0.60233 2.1349,-1.55584 2.48455,-2.86076 0.301427,-1.12494 0.210482,-2.27059 -0.272748,-3.43696 -0.493666,-1.21741 -1.334437,-2.28685 -2.522387,-3.20801 -1.148982,-0.88662 -2.353458,-1.49854 -3.613379,-1.83613 z m -4.312825,16.41025 a 2.6301703,2.6301703 0 0 0 -3.221183,1.85975 2.6301703,2.6301703 0 0 0 1.85975,3.22118 2.6301703,2.6301703 0 0 0 3.221182,-1.85975 2.6301703,2.6301703 0 0 0 -1.859749,-3.22118 z" />
            <path
               id="text1"
               style="font-size:80.3825px;font-family:'Cooper Black';-inkscape-font-specification:'Cooper Black, Normal';stroke-width:1.96301;stroke-linecap:round;stroke-miterlimit:10"
               d="m 72.860234,193.13909 c -1.417409,-0.3798 -2.815696,-0.4713 -4.194781,-0.27415 -1.30255,0.18148 -2.469191,0.68889 -3.500206,1.52186 -1.016748,0.82475 -1.671352,1.78271 -1.963735,2.87391 -0.192909,0.71993 -0.09238,1.37988 0.301504,1.97974 0.341458,0.52555 0.872181,0.88472 1.592136,1.07764 1.034933,0.2773 1.954178,0.19817 2.758157,-0.23748 0.800961,-0.42439 1.411492,-1.19533 1.83144,-2.31262 0.230254,-0.58936 0.447103,-0.97123 0.650614,-1.14579 0.206518,-0.18578 0.484178,-0.23196 0.832905,-0.13848 0.337477,0.0904 0.571002,0.32166 0.70034,0.69391 0.143609,0.36401 0.150564,0.78795 0.02096,1.27168 -0.259222,0.96745 -0.902154,1.90437 -1.928747,2.81087 -1.103943,0.97016 -1.717818,1.52905 -1.841777,1.67669 -0.490613,0.61606 -0.818913,1.23358 -0.984699,1.85231 -0.183864,0.68619 -0.131742,1.27882 0.156491,1.77802 0.288227,0.49923 0.769964,0.83923 1.444923,1.02008 0.708703,0.1899 1.238009,0.21712 1.58774,0.0818 0.352764,-0.14662 0.83186,-0.5848 1.437386,-1.31476 0.282473,-0.33424 0.571954,-0.58235 0.868476,-0.74405 0.310783,-0.16992 0.746856,-0.3123 1.30814,-0.42717 1.55327,-0.30723 2.502175,-0.54125 2.846707,-0.70213 1.306805,-0.60233 2.1349,-1.55584 2.48455,-2.86076 0.301427,-1.12494 0.210482,-2.27059 -0.272748,-3.43696 -0.493666,-1.21741 -1.334437,-2.28685 -2.522387,-3.20801 -1.148982,-0.88662 -2.353458,-1.49854 -3.613379,-1.83613 z m -4.312825,16.41025 a 2.6301703,2.6301703 0 0 0 -3.221183,1.85975 2.6301703,2.6301703 0 0 0 1.85975,3.22118 2.6301703,2.6301703 0 0 0 3.221182,-1.85975 2.6301703,2.6301703 0 0 0 -1.859749,-3.22118 z" />
          </g>
        </g>
      </g>
    </g>
  </g>
</svg>
