<?xml version="1.0" encoding="UTF-8" standalone="no"?>
<!-- Generator: Adobe Illustrator 18.1.1, SVG Export Plug-In . SVG Version: 6.00 Build 0)  -->

<svg
   version="1.1"
   id="Capa_1"
   x="0px"
   y="0px"
   viewBox="0 0 97.913797 99.998728"
   xml:space="preserve"
   sodipodi:docname="icono-campana.svg"
   width="97.913803"
   height="99.998741"
   xmlns:inkscape="http://www.inkscape.org/namespaces/inkscape"
   xmlns:sodipodi="http://sodipodi.sourceforge.net/DTD/sodipodi-0.dtd"
   xmlns="http://www.w3.org/2000/svg"
   xmlns:svg="http://www.w3.org/2000/svg"><defs
   id="defs16" /><sodipodi:namedview
   id="namedview16"
   pagecolor="#ffffff"
   bordercolor="#000000"
   borderopacity="0.25"
   inkscape:showpageshadow="2"
   inkscape:pageopacity="0.0"
   inkscape:pagecheckerboard="0"
   inkscape:deskcolor="#d1d1d1" />
















<g
   id="g17"
   transform="matrix(0.87066115,0,0,0.87066115,2.9633336,2.4150068)"><path
     d="m 84.146959,43.24384 c 0,-14.794372 -10.258264,-27.179952 -24.098302,-30.450853 V 9.5095975 c 0,-3.9939041 -3.22037,-7.2269546 -7.222728,-7.2269546 -4.002358,0 -7.222728,3.2330505 -7.222728,7.2269546 V 12.792987 C 31.763162,16.063888 21.504899,28.453502 21.504899,43.24384 v 26.498833 l -9.63594,9.627486 v 4.817969 h 81.91394 v -4.817969 l -9.63594,-9.627486 z"
     id="path1-10-6"
     sodipodi:nodetypes="scssscsccccccs"
     style="fill:#000000;fill-opacity:1;stroke:#000000;stroke-width:7.55906;stroke-linecap:round;stroke-linejoin:round;stroke-dasharray:none;stroke-opacity:1" /><path
     d="M 27.114394,7.8963644 20.240582,1.0056457 C 8.717112,9.775634 1.094936,23.413932 0.375968,38.826399 h 9.640166 C 10.735102,26.066735 17.29362,14.8795 27.114394,7.8963644 Z"
     id="path1-1-2-8"
     style="fill:#000000;fill-opacity:1;stroke:#000000;stroke-width:7.55906;stroke-linecap:round;stroke-linejoin:round;stroke-dasharray:none;stroke-opacity:1" /><path
     d="m 95.635916,38.826399 h 9.640164 C 104.55711,23.413932 96.934938,9.775634 85.373617,1.0056457 L 78.48309,7.8963644 C 88.35843,14.8795 94.916948,26.066735 95.635916,38.826399 Z"
     id="path1-9-6-4"
     style="fill:#000000;fill-opacity:1;stroke:#000000;stroke-width:7.55906;stroke-linecap:round;stroke-linejoin:round;stroke-dasharray:none;stroke-opacity:1" /><path
     d="m 84.146959,43.24384 c 0,-14.794372 -10.258264,-27.179952 -24.098302,-30.450853 V 9.5095975 c 0,-3.9939041 -3.22037,-7.2269546 -7.222728,-7.2269546 -4.002358,0 -7.222728,3.2330505 -7.222728,7.2269546 V 12.792987 C 31.763162,16.063888 21.504899,28.453502 21.504899,43.24384 v 26.498833 l -9.63594,9.627486 v 4.817969 h 81.91394 v -4.817969 l -9.63594,-9.627486 z"
     id="path1-10"
     sodipodi:nodetypes="scssscsccccccs"
     style="fill:#ffffff;fill-opacity:1;stroke:#ffffff;stroke-width:3.77953;stroke-linecap:round;stroke-linejoin:round;stroke-dasharray:none;stroke-opacity:1" /><path
     d="M 27.114394,7.8963644 20.240582,1.0056457 C 8.717112,9.775634 1.094936,23.413932 0.375968,38.826399 h 9.640166 C 10.735102,26.066735 17.29362,14.8795 27.114394,7.8963644 Z"
     id="path1-1-2"
     style="fill:#ffffff;fill-opacity:1;stroke:#ffffff;stroke-width:3.77953;stroke-linecap:round;stroke-linejoin:round;stroke-dasharray:none;stroke-opacity:1" /><path
     d="m 95.635916,38.826399 h 9.640164 C 104.55711,23.413932 96.934938,9.775634 85.373617,1.0056457 L 78.48309,7.8963644 C 88.35843,14.8795 94.916948,26.066735 95.635916,38.826399 Z"
     id="path1-9-6"
     style="fill:#ffffff;fill-opacity:1;stroke:#ffffff;stroke-width:3.77953;stroke-linecap:round;stroke-linejoin:round;stroke-dasharray:none;stroke-opacity:1" /><path
     d="m 84.146959,43.24384 c 0,-14.794372 -10.258264,-27.179952 -24.098302,-30.450853 V 9.5095975 c 0,-3.9939041 -3.22037,-7.2269546 -7.222728,-7.2269546 -4.002358,0 -7.222728,3.2330505 -7.222728,7.2269546 V 12.792987 C 31.763162,16.063888 21.504899,28.453502 21.504899,43.24384 v 26.498833 l -9.63594,9.627486 v 4.817969 h 81.91394 v -4.817969 l -9.63594,-9.627486 z"
     id="path1"
     sodipodi:nodetypes="scssscsccccccs"
     style="fill:#000000;fill-opacity:1;stroke:none;stroke-width:0;stroke-linecap:round;stroke-dasharray:none;stroke-opacity:1" /><path
     d="M 27.114394,7.8963644 20.240582,1.0056457 C 8.717112,9.775634 1.094936,23.413932 0.375968,38.826399 h 9.640166 C 10.735102,26.066735 17.29362,14.8795 27.114394,7.8963644 Z"
     id="path1-1"
     style="fill:#000000;fill-opacity:1;stroke:none;stroke-width:0;stroke-linecap:round;stroke-linejoin:round;stroke-dasharray:none;stroke-opacity:1" /><path
     d="m 95.635916,38.826399 h 9.640164 C 104.55711,23.413932 96.934938,9.775634 85.373617,1.0056457 L 78.48309,7.8963644 C 88.35843,14.8795 94.916948,26.066735 95.635916,38.826399 Z"
     id="path1-9"
     style="fill:#000000;fill-opacity:1;stroke:none;stroke-width:0;stroke-linecap:round;stroke-linejoin:round;stroke-dasharray:none;stroke-opacity:1" /><g
     id="g16"><text
       xml:space="preserve"
       style="font-style:normal;font-variant:normal;font-weight:normal;font-stretch:normal;font-size:25.0997px;font-family:'Franklin Gothic Book';-inkscape-font-specification:'Franklin Gothic Book, Normal';font-variant-ligatures:normal;font-variant-caps:normal;font-variant-numeric:normal;font-variant-east-asian:normal;fill:#000000;fill-opacity:1;stroke:#000000;stroke-width:5.20441;stroke-linecap:round;stroke-linejoin:round;stroke-miterlimit:10;stroke-dasharray:none;stroke-opacity:1"
       x="4.5636535"
       y="109.14693"
       id="text16-0-7"><tspan
         sodipodi:role="line"
         id="tspan16-5-8"
         x="4.5636535"
         y="109.14693"
         style="fill:#000000;fill-opacity:1;stroke:#000000;stroke-width:5.20441;stroke-linecap:round;stroke-linejoin:round;stroke-dasharray:none;stroke-opacity:1">COPIADO</tspan></text><text
       xml:space="preserve"
       style="font-style:normal;font-variant:normal;font-weight:normal;font-stretch:normal;font-size:25.0997px;font-family:'Franklin Gothic Book';-inkscape-font-specification:'Franklin Gothic Book, Normal';font-variant-ligatures:normal;font-variant-caps:normal;font-variant-numeric:normal;font-variant-east-asian:normal;fill:#ffffff;fill-opacity:1;stroke:#ffffff;stroke-width:3.6926;stroke-linecap:round;stroke-linejoin:round;stroke-miterlimit:10;stroke-dasharray:none;stroke-opacity:1"
       x="4.5636535"
       y="109.14693"
       id="text16-0"><tspan
         sodipodi:role="line"
         id="tspan16-5"
         x="4.5636535"
         y="109.14693"
         style="fill:#ffffff;fill-opacity:1;stroke:#ffffff;stroke-width:3.6926;stroke-linecap:round;stroke-linejoin:round;stroke-dasharray:none;stroke-opacity:1">COPIADO</tspan></text><text
       xml:space="preserve"
       style="font-style:normal;font-variant:normal;font-weight:normal;font-stretch:normal;font-size:25.0997px;font-family:'Franklin Gothic Book';-inkscape-font-specification:'Franklin Gothic Book, Normal';font-variant-ligatures:normal;font-variant-caps:normal;font-variant-numeric:normal;font-variant-east-asian:normal;fill:#000000;fill-opacity:1;stroke:#000000;stroke-width:1.04825;stroke-linecap:round;stroke-linejoin:round;stroke-miterlimit:10;stroke-dasharray:none;stroke-opacity:1"
       x="4.5636535"
       y="109.14693"
       id="text16"><tspan
         sodipodi:role="line"
         id="tspan16"
         x="4.5636535"
         y="109.14693"
         style="stroke-width:1.04825;stroke-linecap:round;stroke-linejoin:round">COPIADO</tspan></text></g></g></svg>
