<?xml version="1.0" encoding="UTF-8" standalone="no"?>
<!-- Generator: Adobe Illustrator 18.1.1, SVG Export Plug-In . SVG Version: 6.00 Build 0)  -->

<svg
   viewBox="0 0 133.62468 92.420181"
   width="133.62468"
   height="92.420181"
   version="1.1"
   id="svg3"
   sodipodi:docname="candado-base.svg"
   xmlns:inkscape="http://www.inkscape.org/namespaces/inkscape"
   xmlns:sodipodi="http://sodipodi.sourceforge.net/DTD/sodipodi-0.dtd"
   xmlns="http://www.w3.org/2000/svg"
   xmlns:svg="http://www.w3.org/2000/svg">
  <defs
     id="defs3" />
  <sodipodi:namedview
     id="namedview3"
     pagecolor="#ffffff"
     bordercolor="#000000"
     borderopacity="0.25"
     inkscape:showpageshadow="2"
     inkscape:pageopacity="0.0"
     inkscape:pagecheckerboard="0"
     inkscape:deskcolor="#d1d1d1"
     showguides="false" />
  <text
     xml:space="preserve"
     style="font-style:normal;font-variant:normal;font-weight:normal;font-stretch:normal;font-size:120.382px;font-family:'Comic Sans MS';-inkscape-font-specification:'Comic Sans MS, Normal';font-variant-ligatures:normal;font-variant-caps:normal;font-variant-numeric:normal;font-variant-east-asian:normal;fill:none;stroke:#000000;stroke-width:3.77953;stroke-linecap:round;stroke-miterlimit:10;stroke-dasharray:none"
     x="-5.8104525"
     y="88.767014"
     id="text3"><tspan
       sodipodi:role="line"
       id="tspan3"
       x="-5.8104525"
       y="88.767014"
       style="stroke-width:3.77953;stroke-dasharray:none">A</tspan></text>
  <path
     fill="none"
     stroke="#000000"
     stroke-width="2.80354"
     stroke-linecap="round"
     stroke-miterlimit="10"
     d="m 86.512734,87.011156 c -1.489404,0.399085 -3.034533,-0.492995 -3.433617,-1.982399 l -8.707305,-32.4961 c -0.399084,-1.489405 0.492996,-3.034532 1.982399,-3.433618 L 119.68234,37.489302 c 1.4894,-0.399085 3.03454,0.492993 3.43361,1.9824 l 8.70732,32.496098 c 0.39907,1.489407 -0.49301,3.034533 -1.98241,3.433619 z"
     id="path1"
     style="stroke-width:3.415;stroke-dasharray:none" />
  <path
     fill="none"
     stroke="#000000"
     stroke-width="2.80354"
     stroke-linecap="round"
     stroke-miterlimit="10"
     d="m 112.39469,37.371472 c 0,0 -1.77775,-6.634621 -2.17683,-8.124026 -2.21312,-8.259423 -10.62547,-13.116303 -18.884894,-10.903198 -8.259424,2.213107 -13.116303,10.625468 -10.903197,18.884893 0.399085,1.489406 2.176826,8.124026 2.176826,8.124026"
     id="path2"
     style="stroke-width:6.115;stroke-linecap:square;stroke-dasharray:none" />
  <path
     d="m 108.61594,56.324975 c -0.9653,-3.60256 -4.45838,-5.619287 -8.06093,-4.653984 -3.602564,0.965304 -5.61929,4.458377 -4.653987,8.060937 0.511043,1.907238 1.812964,3.375431 3.368369,4.094313 l 1.589908,5.933632 c 0.62461,2.331069 3.04289,3.727263 5.37395,3.102654 2.33108,-0.624607 3.72728,-3.042889 3.10267,-5.373959 l -1.58991,-5.93363 c 0.98757,-1.40027 1.38098,-3.322724 0.86993,-5.229963 z"
     id="path3"
     style="fill:#ffffff;fill-opacity:1;stroke:#000000;stroke-width:3;stroke-dasharray:none;stroke-opacity:1" />
</svg>
