<?xml version="1.0" encoding="UTF-8" standalone="no"?>
<!-- Generator: Adobe Illustrator 18.1.1, SVG Export Plug-In . SVG Version: 6.00 Build 0)  -->

<svg
   viewBox="0 0 146.79344 77.183168"
   width="146.79344"
   height="77.183167"
   version="1.1"
   id="svg3"
   sodipodi:docname="candado-base.svg"
   xmlns:inkscape="http://www.inkscape.org/namespaces/inkscape"
   xmlns:sodipodi="http://sodipodi.sourceforge.net/DTD/sodipodi-0.dtd"
   xmlns="http://www.w3.org/2000/svg"
   xmlns:svg="http://www.w3.org/2000/svg">
  <defs
     id="defs3" />
  <sodipodi:namedview
     id="namedview3"
     pagecolor="#ffffff"
     bordercolor="#000000"
     borderopacity="0.25"
     inkscape:showpageshadow="2"
     inkscape:pageopacity="0.0"
     inkscape:pagecheckerboard="0"
     inkscape:deskcolor="#d1d1d1" />
  <g
     id="g4"
     transform="translate(72.692499,13.171874)"
     inkscape:export-filename="logo-encriptador.svg"
     inkscape:export-xdpi="96"
     inkscape:export-ydpi="96">
    <g
       id="g5">
      <path
         fill="none"
         stroke="#000000"
         stroke-width="0.571088"
         stroke-linecap="round"
         stroke-miterlimit="10"
         d="m 71.759964,59.277203 c 0,1.316216 -1.076905,2.393118 -2.393115,2.393118 H 40.649445 c -1.316218,0 -2.393117,-1.076902 -2.393117,-2.393118 V 20.987334 c 0,-1.316217 1.076899,-2.393121 2.393117,-2.393121 h 28.717404 c 1.31621,0 2.393115,1.076904 2.393115,2.393121 z"
         id="path1"
         style="stroke-width:4.68195;stroke-linecap:round;stroke-linejoin:miter;stroke-dasharray:none;paint-order:normal" />
      <path
         fill="none"
         stroke="#000000"
         stroke-width="0.571088"
         stroke-linecap="round"
         stroke-miterlimit="10"
         d="m 33.301272,26.970125 c 0,0 -5.863138,0 -7.179352,0 -7.299006,0 -13.162142,5.863136 -13.162142,13.162144 0,7.299006 5.863136,13.162144 13.162142,13.162144 1.316214,0 7.179352,0 7.179352,0"
         id="path2"
         style="stroke:#000000;stroke-width:6.5547;stroke-linecap:square;stroke-dasharray:none;stroke-opacity:1;paint-order:stroke fill markers" />
      <path
         d="m 52.615024,36.542592 c -2.034146,0 -3.589672,1.555528 -3.589672,3.589676 0,2.034151 1.555526,3.589673 3.589672,3.589673 1.076906,0 2.03415,-0.478622 2.632433,-1.196557 h 3.350362 c 1.316215,0 2.393119,-1.076903 2.393119,-2.393116 0,-1.316216 -1.076904,-2.393119 -2.393119,-2.393119 H 55.247457 C 54.649174,37.021217 53.69193,36.542592 52.615024,36.542592 Z"
         id="path3"
         style="fill:none;fill-opacity:1;stroke:#000000;stroke-width:2.80916;stroke-dasharray:none;stroke-opacity:1" />
    </g>
  </g>
  <text
     xml:space="preserve"
     style="font-style:normal;font-variant:normal;font-weight:bold;font-stretch:normal;font-size:100.575px;font-family:Arial;-inkscape-font-specification:'Arial, Bold';font-variant-ligatures:normal;font-variant-caps:normal;font-variant-numeric:normal;font-variant-east-asian:normal;fill:none;stroke:#000000;stroke-width:5.18954;stroke-linecap:square;stroke-miterlimit:10;stroke-dasharray:none;stroke-dashoffset:0;stroke-opacity:1"
     x="2.59477"
     y="74.588394"
     id="text3"><tspan
       sodipodi:role="line"
       id="tspan3"
       x="2.59477"
       y="74.588394"
       style="fill:none;stroke:#000000;stroke-width:5.18954;stroke-linecap:square;stroke-dasharray:none;stroke-dashoffset:0;stroke-opacity:1">A</tspan></text>
</svg>
