<?xml version="1.0" encoding="UTF-8" standalone="no"?>
<!-- Generator: Adobe Illustrator 18.1.1, SVG Export Plug-In . SVG Version: 6.00 Build 0)  -->

<svg
   viewBox="0 0 161.95542 42.124813"
   width="161.95543"
   height="42.124813"
   version="1.1"
   id="svg3"
   sodipodi:docname="candado-base.svg"
   xmlns:inkscape="http://www.inkscape.org/namespaces/inkscape"
   xmlns:sodipodi="http://sodipodi.sourceforge.net/DTD/sodipodi-0.dtd"
   xmlns="http://www.w3.org/2000/svg"
   xmlns:svg="http://www.w3.org/2000/svg">
  <defs
     id="defs3" />
  <sodipodi:namedview
     id="namedview3"
     pagecolor="#ffffff"
     bordercolor="#000000"
     borderopacity="0.25"
     inkscape:showpageshadow="2"
     inkscape:pageopacity="0.0"
     inkscape:pagecheckerboard="0"
     inkscape:deskcolor="#d1d1d1" />
  <g
     id="g6"
     transform="matrix(0.89548425,0,0,0.89548425,121.94604,-3.2574858)">
    <path
       fill="none"
       stroke="#000000"
       stroke-width="1.6655"
       stroke-linecap="round"
       stroke-miterlimit="10"
       d="m 14.853676,49.167248 c -0.916028,0 -1.665504,-0.749477 -1.665504,-1.665504 V 27.515693 c 0,-0.916028 0.749476,-1.665505 1.665504,-1.665505 h 26.648068 c 0.916027,0 1.665504,0.749477 1.665504,1.665505 v 19.986051 c 0,0.916027 -0.749477,1.665504 -1.665504,1.665504 z"
       id="path1"
       style="stroke-width:3.02362;stroke-dasharray:none" />
    <path
       fill="none"
       stroke="#000000"
       stroke-width="2.66057"
       stroke-linecap="round"
       stroke-miterlimit="10"
       d="m 40.36348,24.857064 c 0,0 0,-5.428207 0,-6.646784 0,-6.757563 -5.428207,-12.1857699 -12.18577,-12.1857699 -6.757564,0 -12.18577,5.4282069 -12.18577,12.1857699 0,1.218577 0,6.646784 0,6.646784"
       id="path2"
       style="stroke-width:3.02362;stroke-dasharray:none" />
    <path
       d="m 32.04696,34.929218 c 0,-2.192576 -1.676675,-3.869251 -3.86925,-3.869251 -2.192576,0 -3.869251,1.676675 -3.869251,3.869251 0,1.160775 0.5159,2.192575 1.28975,2.83745 v 3.611301 c 0,1.418725 1.160775,2.5795 2.579501,2.5795 1.418725,0 2.5795,-1.160775 2.5795,-2.5795 v -3.611301 c 0.77385,-0.644875 1.28975,-1.676675 1.28975,-2.83745 z"
       id="path3"
       style="stroke-width:1.28975" />
  </g>
  <text
     xml:space="preserve"
     style="font-style:normal;font-variant:normal;font-weight:bold;font-stretch:normal;font-size:53.3333px;font-family:Arial;-inkscape-font-specification:'Arial, Bold';font-variant-ligatures:normal;font-variant-caps:normal;font-variant-numeric:normal;font-variant-east-asian:normal;fill:none;stroke:#000000;stroke-width:2.64567;stroke-linecap:square;stroke-miterlimit:10;stroke-dasharray:none;stroke-dashoffset:0"
     x="1.322835"
     y="40.801975"
     id="text3"><tspan
       sodipodi:role="line"
       id="tspan3"
       x="1.322835"
       y="40.801975">A</tspan></text>
  <text
     xml:space="preserve"
     style="font-style:normal;font-variant:normal;font-weight:bold;font-stretch:normal;font-size:53.3333px;font-family:Arial;-inkscape-font-specification:'Arial, Bold';font-variant-ligatures:normal;font-variant-caps:normal;font-variant-numeric:normal;font-variant-east-asian:normal;fill:none;stroke:#000000;stroke-width:2.64567;stroke-linecap:square;stroke-miterlimit:10;stroke-dasharray:none;stroke-dashoffset:0"
     x="45.344002"
     y="40.801975"
     id="text4"><tspan
       sodipodi:role="line"
       id="tspan4"
       x="45.344002"
       y="40.801975">B</tspan></text>
  <text
     xml:space="preserve"
     style="font-style:normal;font-variant:normal;font-weight:bold;font-stretch:normal;font-size:53.3333px;font-family:Arial;-inkscape-font-specification:'Arial, Bold';font-variant-ligatures:normal;font-variant-caps:normal;font-variant-numeric:normal;font-variant-east-asian:normal;fill:none;stroke:#000000;stroke-width:2.64567;stroke-linecap:square;stroke-miterlimit:10;stroke-dasharray:none;stroke-dashoffset:0"
     x="88.323502"
     y="40.150936"
     id="text5"><tspan
       sodipodi:role="line"
       id="tspan5"
       x="88.323502"
       y="40.150936">C</tspan></text>
</svg>
